HIERARCHY
ROOT joint_Root
{
	OFFSET 0.0 0.0 0.0
	CHANNELS 6 Xposition Yposition Zposition Zrotation Xrotation Yrotation 
	JOINT Hips
	{
		OFFSET 4.5925 91.4895 -427.239
		CHANNELS 6 Xposition Yposition Zposition Zrotation Xrotation Yrotation 
		JOINT Spine
		{
			OFFSET 15.7357 0.0 0.0
			CHANNELS 6 Xposition Yposition Zposition Zrotation Xrotation Yrotation 
			JOINT Chest
			{
				OFFSET 8.98455 -0.406207 0.0
				CHANNELS 6 Xposition Yposition Zposition Zrotation Xrotation Yrotation 
				JOINT Neck
				{
					OFFSET 16.3773 0.0 0.0
					CHANNELS 6 Xposition Yposition Zposition Zrotation Xrotation Yrotation 
					JOINT Head
					{
						OFFSET 6.45672 0.0 0.0
						CHANNELS 6 Xposition Yposition Zposition Zrotation Xrotation Yrotation 
						End Site
						{
							OFFSET 0.0 0.0 0.0
						}
					}
				}
				JOINT Shoulder_L
				{
					OFFSET 12.9942 -0.242716 4.98039
					CHANNELS 6 Xposition Yposition Zposition Zrotation Xrotation Yrotation 
					JOINT UpperArm_L
					{
						OFFSET 5.34809 0.0 0.0
						CHANNELS 6 Xposition Yposition Zposition Zrotation Xrotation Yrotation 
						JOINT LowerArm_L
						{
							OFFSET 24.3286 1.87007e-05 0.0
							CHANNELS 6 Xposition Yposition Zposition Zrotation Xrotation Yrotation 
							JOINT Hand_L
							{
								OFFSET 22.2916 0.0 0.0
								CHANNELS 6 Xposition Yposition Zposition Zrotation Xrotation Yrotation 
								End Site
								{
									OFFSET 0.0 0.0 0.0
								}
							}
						}
					}
				}
				JOINT Shoulder_R
				{
					OFFSET 12.9945 -0.242716 -4.98039
					CHANNELS 6 Xposition Yposition Zposition Zrotation Xrotation Yrotation 
					JOINT UpperArm_R
					{
						OFFSET -5.34813 0.0 0.0
						CHANNELS 6 Xposition Yposition Zposition Zrotation Xrotation Yrotation 
						JOINT LowerArm_R
						{
							OFFSET -24.3289 0.000322201 0.0
							CHANNELS 6 Xposition Yposition Zposition Zrotation Xrotation Yrotation 
							JOINT Hand_R
							{
								OFFSET -22.2915 -0.000108084 0.0
								CHANNELS 6 Xposition Yposition Zposition Zrotation Xrotation Yrotation 
								End Site
								{
									OFFSET 0.0 0.0 0.0
								}
							}
						}
					}
				}
			}
		}
		JOINT UpperLeg_L
		{
			OFFSET -2.19248 -6.46944 0.0
			CHANNELS 6 Xposition Yposition Zposition Zrotation Xrotation Yrotation 
			JOINT LowerLeg_L
			{
				OFFSET 39.0811 0.0 -1.23785e-05
				CHANNELS 6 Xposition Yposition Zposition Zrotation Xrotation Yrotation 
				JOINT Foot_L
				{
					OFFSET 40.9854 0.0 -1.26872e-05
					CHANNELS 6 Xposition Yposition Zposition Zrotation Xrotation Yrotation 
					JOINT Toes_L
					{
						OFFSET 11.7543 0.0 0.0
						CHANNELS 6 Xposition Yposition Zposition Zrotation Xrotation Yrotation 
						End Site
						{
							OFFSET 0.0 0.0 0.0
						}
					}
				}
			}
		}
		JOINT UpperLeg_R
		{
			OFFSET -2.19251 6.46944 0.0
			CHANNELS 6 Xposition Yposition Zposition Zrotation Xrotation Yrotation 
			JOINT LowerLeg_R
			{
				OFFSET -39.0811 -0.00228153 -0.0401928
				CHANNELS 6 Xposition Yposition Zposition Zrotation Xrotation Yrotation 
				JOINT Foot_R
				{
					OFFSET -40.9854 0.0 0.0
					CHANNELS 6 Xposition Yposition Zposition Zrotation Xrotation Yrotation 
					JOINT Toes_R
					{
						OFFSET -11.7543 0.0 0.0
						CHANNELS 6 Xposition Yposition Zposition Zrotation Xrotation Yrotation 
						End Site
						{
							OFFSET 0.0 0.0 0.0
						}
					}
				}
			}
		}
	}
}
MOTION
Frames:	5
Frame Time:	0.0333333
0.000000 0.000000 0.000000 0.000000 0.000000 -0.000000 118.032000 83.573400 163.524000 108.248000 -55.112700 14.952800 15.735700 0.000005 -0.000001 94.710300 82.637900 -96.901000 8.984550 -0.406207 -0.000000 6.936760 1.220820 -4.450760 16.377300 -0.000001 -0.000001 -0.979893 -16.023200 0.953299 6.456720 -0.000001 -0.000000 -0.959008 -24.610000 4.492390 12.994200 -0.242716 4.980390 -92.238800 6.341270 -70.509800 5.348090 -0.000007 -0.000001 -58.689700 32.050000 -8.773110 24.328600 0.000019 0.000005 10.740800 0.656103 -86.547400 22.291600 -0.000001 0.000005 5.224440 5.546140 -8.524210 12.994500 -0.242716 -4.980390 88.104200 10.142900 -79.354800 -5.348130 -0.000001 -0.000004 -69.945900 29.812900 8.562430 -24.328900 0.000322 -0.000009 -36.286400 -8.871320 -78.136500 -22.291500 -0.000108 -0.000004 25.017100 5.653060 -15.295200 -2.192480 -6.469440 -0.000000 178.937000 -10.015400 -24.988400 39.081100 -0.000007 -0.000012 -0.312192 0.237792 52.704800 40.985400 -0.000006 -0.000013 -5.460740 7.319220 -76.737700 11.754300 -0.000000 0.000003 -0.000230 -0.002082 -16.655800 -2.192510 6.469440 -0.000001 168.261000 -3.318580 172.182000 -39.081100 -0.002282 -0.040193 0.231229 -0.072779 72.307500 -40.985400 0.000008 0.000006 -0.811575 10.705300 -31.451400 -11.754300 -0.000006 -0.000006 -0.026589 -0.201382 -24.815600
0.000000 0.000000 0.000000 0.000000 0.000000 -0.000000 114.796000 85.015600 165.740000 105.804000 -55.408400 12.940800 15.735700 0.000005 -0.000001 85.627500 82.879600 -87.310900 8.984550 -0.406207 -0.000000 6.420690 -1.062770 -3.303630 16.377300 -0.000001 -0.000001 -0.690517 -15.776400 0.274453 6.456720 -0.000001 -0.000000 -0.938067 -22.430300 3.668950 12.994200 -0.242716 4.980390 -91.414100 4.397510 -72.159700 5.348090 -0.000007 -0.000001 -60.630400 30.395800 -19.477300 24.328600 0.000019 0.000005 7.730030 -0.517275 -93.845400 22.291600 -0.000001 0.000005 5.366900 5.537940 -8.151740 12.994500 -0.242716 -4.980390 88.113100 8.465560 -77.381300 -5.348130 -0.000001 -0.000004 -71.554600 33.247700 17.913300 -24.328900 0.000322 -0.000009 -32.874500 -5.032520 -82.277400 -22.291500 -0.000108 -0.000004 23.267800 5.646230 -14.622400 -2.192480 -6.469440 -0.000000 -179.383000 -9.228160 -19.320700 39.081100 -0.000007 -0.000012 -0.327584 0.298724 47.639100 40.985400 -0.000006 -0.000013 -5.999760 6.699810 -77.356500 11.754300 -0.000000 0.000003 -0.000219 -0.002002 -16.652900 -2.192510 6.469440 -0.000001 171.588000 -0.288078 166.089000 -39.081100 -0.002282 -0.040193 0.155529 -0.032570 77.950400 -40.985400 0.000008 0.000006 8.710180 4.798030 -41.948600 -11.754300 -0.000006 -0.000006 -0.026019 -0.198600 -24.700500
0.000000 0.000000 0.000000 0.000000 0.000000 -0.000000 111.270000 87.045400 167.697000 102.368000 -55.960100 10.207000 15.735700 0.000005 -0.000001 70.844700 82.749500 -71.930400 8.984550 -0.406207 -0.000000 5.903790 -4.728120 -1.925770 16.377300 -0.000001 -0.000001 -0.326685 -14.568600 -0.044307 6.456720 -0.000001 -0.000000 -0.552004 -18.659100 3.054460 12.994200 -0.242716 4.980390 -90.424600 1.391300 -73.030900 5.348090 -0.000007 -0.000001 -62.718800 28.326700 -26.502300 24.328600 0.000019 0.000005 1.638370 -0.329019 -101.429000 22.291600 -0.000001 0.000005 6.540490 5.532420 -7.902240 12.994500 -0.242716 -4.980390 88.560500 5.799250 -76.031300 -5.348130 -0.000001 -0.000004 -73.209400 39.321700 24.347400 -24.328900 0.000322 -0.000009 -28.389400 -1.127480 -87.919500 -22.291500 -0.000108 -0.000004 20.850200 5.625900 -13.018500 -2.192480 -6.469440 -0.000000 -176.997000 -8.447170 -11.705000 39.081100 -0.000007 -0.000012 -0.283945 0.353403 38.781000 40.985400 -0.000006 -0.000013 -6.983140 5.714040 -76.019400 11.754300 -0.000000 0.000003 -0.000164 -0.001569 -16.637100 -2.192510 6.469440 -0.000001 175.466000 3.151150 161.122000 -39.081100 -0.002282 -0.040193 0.139634 -0.029465 77.834900 -40.985400 0.000008 0.000006 10.277200 -1.173540 -47.475800 -11.754300 -0.000006 -0.000006 -0.023391 -0.185393 -24.154600
0.000000 0.000000 0.000000 0.000000 0.000000 -0.000000 107.837000 89.126000 169.420000 99.461200 -57.854900 6.938110 15.735700 0.000005 -0.000001 59.835200 82.723200 -60.187100 8.984550 -0.406207 -0.000000 4.825800 -7.290030 -0.396106 16.377300 -0.000001 -0.000001 -0.112838 -13.195100 -0.276287 6.456720 -0.000001 -0.000000 -0.207995 -15.546100 1.720400 12.994200 -0.242716 4.980390 -89.696600 -1.008910 -73.260000 5.348090 -0.000007 -0.000001 -63.493400 26.800500 -31.921100 24.328600 0.000019 0.000005 0.347083 -0.109977 -107.472000 22.291600 -0.000001 0.000005 5.980340 5.518600 -7.299710 12.994500 -0.242716 -4.980390 89.109100 3.413830 -75.362500 -5.348130 -0.000001 -0.000004 -73.556600 43.623300 29.720500 -24.328900 0.000322 -0.000009 -25.681100 2.059730 -94.278400 -22.291500 -0.000108 -0.000004 18.248800 5.609490 -11.909600 -2.192480 -6.469440 -0.000000 -175.199000 -8.846900 -5.011910 39.081100 -0.000007 -0.000012 -0.021010 0.037787 29.075800 40.985400 -0.000006 -0.000013 -5.753740 4.059180 -71.576700 11.754300 -0.000000 0.000003 -1.314230 -1.645320 -18.032800 -2.192510 6.469440 -0.000001 179.363000 4.478050 156.329000 -39.081100 -0.002282 -0.040193 0.091203 -0.026334 73.365300 -40.985400 0.000008 0.000006 9.764930 -2.585680 -52.055000 -11.754300 -0.000006 -0.000006 -0.024234 -0.189702 -24.332600
0.000000 0.000000 0.000000 0.000000 0.000000 -0.000000 104.749000 90.823600 171.030000 96.929400 -60.165500 2.723110 15.735700 0.000005 -0.000001 52.021000 82.985400 -51.653700 8.984550 -0.406207 -0.000000 3.353020 -8.637520 0.988090 16.377300 -0.000001 -0.000001 -0.361753 -11.983600 -0.353195 6.456720 -0.000001 -0.000000 -0.013650 -13.277900 1.257420 12.994200 -0.242716 4.980390 -88.979600 -3.406520 -73.314700 5.348090 -0.000007 -0.000001 -63.716000 25.933800 -36.465900 24.328600 0.000019 0.000005 1.191950 -0.474851 -111.711000 22.291600 -0.000001 0.000005 4.269100 5.504900 -6.728860 12.994500 -0.242716 -4.980390 89.549400 1.615840 -74.410100 -5.348130 -0.000001 -0.000004 -72.457900 45.982000 33.244100 -24.328900 0.000322 -0.000009 -23.403300 4.309410 -99.851100 -22.291500 -0.000108 -0.000004 16.339500 5.598360 -11.241800 -2.192480 -6.469440 -0.000000 -173.582000 -11.037000 -2.012110 39.081100 -0.000007 -0.000012 -0.028023 0.066020 22.999100 40.985400 -0.000006 -0.000013 -5.917850 4.006200 -64.392800 11.754300 -0.000000 0.000003 -1.563430 -1.799580 -20.684700 -2.192510 6.469440 -0.000001 -177.221000 5.195640 151.648000 -39.081100 -0.002282 -0.040193 0.043031 -0.018211 65.450900 -40.985400 0.000008 0.000006 8.692140 -0.299321 -56.672400 -11.754300 -0.000006 -0.000006 -0.023686 -0.186911 -24.217200
